<svg xmlns="http://www.w3.org/2000/svg" width="32" height="32" viewBox="0 0 32 32"><path style="line-height:normal;text-indent:0;text-align:start;text-decoration-line:none;text-decoration-style:solid;text-decoration-color:#000;text-transform:none;block-progression:tb;white-space:normal;isolation:auto;mix-blend-mode:normal;solid-color:#000;solid-opacity:1" d="M 16.011719 2 A 0.50005 0.50005 0 0 0 15.962891 2.0019531 A 0.50005 0.50005 0 0 0 15.597656 2.2011719 L 14.097656 4.2011719 A 0.50005 0.50005 0 0 0 13.998047 4.5 L 13.998047 5.0820312 C 12.915374 5.4679073 11.952075 6.1300092 11.201172 7.0078125 L 7.5898438 7.0078125 A 0.50005 0.50005 0 0 0 7.4160156 7.0078125 L 7.3847656 7.0078125 L 7.3847656 7.0136719 A 0.50005 0.50005 0 0 0 6.9980469 7.5078125 C 6.9980621 8.0446125 6.7128533 8.5382406 6.2480469 8.8066406 C 5.7832538 9.0749406 5.21284 9.0749406 4.7480469 8.8066406 C 4.2832405 8.5382406 3.9980316 8.0446125 3.9980469 7.5078125 A 0.50005 0.50005 0 0 0 3.4902344 7 A 0.50005 0.50005 0 0 0 2.9980469 7.5078125 C 2.9980238 8.3214757 3.4086656 9.0636564 4.0644531 9.5292969 L 1.0292969 18.201172 A 0.50005 0.50005 0 0 0 1.0019531 18.460938 A 0.50005 0.50005 0 0 0 0.99804688 18.507812 C 0.99802926 20.114712 1.8564224 21.600897 3.2480469 22.404297 C 4.6396569 23.207697 6.3564368 23.207697 7.7480469 22.404297 C 9.1396716 21.600897 9.9980643 20.114712 9.9980469 18.507812 A 0.50005 0.50005 0 0 0 9.9960938 18.470703 A 0.50005 0.50005 0 0 0 9.9707031 18.201172 L 6.9355469 9.5273438 C 7.4511902 9.1598743 7.804768 8.621747 7.9316406 8.0078125 L 13.998047 8.0078125 L 13.998047 9.5 A 0.50005 0.50005 0 0 0 14.498047 10 L 14.501953 10 L 14.501953 27.125 C 12.940162 27.375982 11.58731 28.02252 10.759766 29.001953 L 8.4980469 29.001953 A 0.50005 0.50005 0 0 0 7.9980469 29.501953 L 7.9980469 31.501953 A 0.50005 0.50005 0 0 0 8.4980469 32.001953 L 23.503906 32.001953 A 0.50005 0.50005 0 0 0 24.003906 31.501953 L 24.003906 29.501953 A 0.50005 0.50005 0 0 0 23.503906 29.001953 L 21.248047 29.001953 C 20.416033 28.017966 19.05878 27.369874 17.501953 27.119141 L 17.501953 10 A 0.50005 0.50005 0 0 0 17.998047 9.5 L 17.998047 8.0078125 L 24.064453 8.0078125 C 24.191528 8.6230827 24.545667 9.1635409 25.0625 9.53125 L 22.029297 18.201172 A 0.50005 0.50005 0 0 0 22.001953 18.460938 A 0.50005 0.50005 0 0 0 21.998047 18.507812 C 21.998029 20.114712 22.856423 21.600897 24.248047 22.404297 C 25.639657 23.207697 27.356437 23.207697 28.748047 22.404297 C 30.139672 21.600897 30.998064 20.114712 30.998047 18.507812 A 0.50005 0.50005 0 0 0 30.996094 18.470703 A 0.50005 0.50005 0 0 0 30.970703 18.201172 L 27.935547 9.5292969 C 28.589211 9.0631487 28.99803 8.320024 28.998047 7.5078125 A 0.50005 0.50005 0 0 0 28.505859 7 A 0.50005 0.50005 0 0 0 27.998047 7.5078125 C 27.998035 8.0445125 27.71283 8.5382406 27.248047 8.8066406 C 26.783254 9.0749406 26.21284 9.0749406 25.748047 8.8066406 C 25.283264 8.5382406 24.998058 8.0445125 24.998047 7.5078125 A 0.50005 0.50005 0 0 0 24.613281 7.0136719 L 24.613281 7.0078125 L 24.580078 7.0078125 A 0.50005 0.50005 0 0 0 24.40625 7.0078125 L 20.783203 7.0078125 C 20.029081 6.144561 19.072639 5.4928988 17.998047 5.1113281 L 17.998047 4.5 A 0.50005 0.50005 0 0 0 17.898438 4.2011719 L 16.398438 2.2011719 A 0.50005 0.50005 0 0 0 16.011719 2 z M 15.998047 3.3339844 L 16.998047 4.6679688 L 16.998047 9 L 15.998047 9 L 14.998047 9 L 14.998047 4.6679688 L 15.998047 3.3339844 z M 13.998047 6.1601562 L 13.998047 7.0078125 L 12.621094 7.0078125 C 13.036933 6.6585442 13.499959 6.3752689 13.998047 6.1601562 z M 17.998047 6.1835938 C 18.486502 6.393162 18.940176 6.6703343 19.351562 7.0078125 L 17.998047 7.0078125 L 17.998047 6.1835938 z M 5.4980469 7.0058594 A 0.5 0.5 0 0 0 4.9980469 7.5058594 A 0.5 0.5 0 0 0 5.4980469 8.0058594 A 0.5 0.5 0 0 0 5.9980469 7.5058594 A 0.5 0.5 0 0 0 5.4980469 7.0058594 z M 26.498047 7.0078125 A 0.5 0.5 0 0 0 25.998047 7.5078125 A 0.5 0.5 0 0 0 26.498047 8.0078125 A 0.5 0.5 0 0 0 26.998047 7.5078125 A 0.5 0.5 0 0 0 26.498047 7.0078125 z M 4.9804688 9.9375 C 5.3236661 10.010166 5.6764226 10.010705 6.0195312 9.9375 L 8.84375 18.007812 L 5.4980469 18.007812 L 2.15625 18.007812 L 4.9804688 9.9375 z M 25.980469 9.9394531 C 26.3243 10.012237 26.677786 10.013047 27.021484 9.9394531 L 29.84375 18.007812 L 26.498047 18.007812 L 23.15625 18.007812 L 25.980469 9.9394531 z M 15.501953 10 L 15.998047 10 L 16.501953 10 L 16.501953 27.001953 L 15.501953 27.001953 L 15.501953 10 z M 2.1328125 19.007812 L 5.4980469 19.007812 L 8.8632812 19.007812 C 8.7043977 20.048912 8.1767944 21.002862 7.2480469 21.539062 C 6.164444 22.164663 4.8316498 22.164663 3.7480469 21.539062 C 2.8192995 21.002862 2.291696 20.048913 2.1328125 19.007812 z M 23.132812 19.007812 L 26.498047 19.007812 L 29.863281 19.007812 C 29.704398 20.048912 29.176794 21.002862 28.248047 21.539062 C 27.164444 22.164663 25.83165 22.164663 24.748047 21.539062 C 23.8193 21.002862 23.291696 20.048913 23.132812 19.007812 z M 15.90625 28.001953 C 17.400379 27.985453 18.796003 28.385416 19.740234 29.001953 L 12.271484 29.001953 C 13.173579 28.414702 14.478853 28.017501 15.90625 28.001953 z M 8.9980469 30.001953 L 23.003906 30.001953 L 23.003906 31.001953 L 8.9980469 31.001953 L 8.9980469 30.001953 z " color="#000" enable-background="accumulate" font-family="sans-serif" font-weight="400" overflow="visible"/></svg>